<?xml version="1.0" standalone="no"?>
<!DOCTYPE svg PUBLIC "-//W3C//DTD SVG 20010904//EN"
 "http://www.w3.org/TR/2001/REC-SVG-20010904/DTD/svg10.dtd">
<svg version="1.0" xmlns="http://www.w3.org/2000/svg"
 width="559.000000pt" height="447.000000pt" viewBox="0 0 559.000000 447.000000"
 preserveAspectRatio="xMidYMid meet">

<g transform="translate(0.000000,447.000000) scale(0.100000,-0.100000)"
fill="#000000" stroke="none">
<path d="M2520 2634 c-361 -33 -748 -142 -1164 -329 -17 -7 -74 -20 -126 -29
-52 -9 -154 -25 -227 -37 -109 -18 -132 -25 -136 -41 -3 -10 -6 -89 -6 -176
l-1 -157 29 65 c16 36 44 101 62 144 31 72 37 80 72 92 132 45 559 64 1057 45
173 -6 333 -14 355 -16 35 -5 37 -4 15 6 -76 32 -352 71 -650 90 -96 6 -179
15 -184 19 -12 12 21 27 168 77 240 81 453 135 671 170 81 12 169 17 335 17
249 0 355 -14 515 -65 49 -15 91 -27 92 -25 2 2 -29 17 -69 33 -187 79 -354
111 -593 117 -93 2 -190 2 -215 0z"/>
<path d="M2525 2354 c46 -38 212 -107 323 -135 250 -61 608 -66 897 -12 140
26 419 24 560 -5 127 -25 211 -49 309 -86 38 -14 71 -24 73 -22 7 7 -140 93
-207 121 -77 32 -162 57 -285 81 -124 25 -525 26 -665 1 -52 -9 -107 -17 -122
-17 -26 0 -28 3 -28 39 0 35 -2 38 -25 33 -15 -2 -25 0 -25 7 0 7 -24 11 -66
11 -62 0 -65 -1 -62 -22 3 -21 10 -23 76 -28 39 -3 72 -2 72 3 0 4 5 7 10 7 6
0 10 -11 10 -25 0 -34 -37 -39 -254 -32 -185 6 -348 28 -496 68 -41 11 -84 22
-95 25 l-20 5 20 -17z"/>
<path d="M1588 2093 c7 -3 16 -2 19 1 4 3 -2 6 -13 5 -11 0 -14 -3 -6 -6z"/>
<path d="M1682 2055 c37 -21 90 -62 119 -92 l51 -54 667 8 c374 4 631 10 586
14 -44 4 -345 13 -670 19 l-590 13 -43 37 c-45 40 -110 75 -158 85 -18 4 -3
-8 38 -30z"/>
<path d="M1374 2069 c-137 -18 -292 -110 -340 -201 -14 -27 -13 -28 9 -28 14
0 45 21 83 58 142 139 326 170 499 86 51 -25 155 -116 155 -135 0 -5 7 -9 15
-9 25 0 17 16 -35 73 -108 118 -248 175 -386 156z"/>
<path d="M4041 2064 c-90 -24 -186 -81 -246 -146 -30 -32 -55 -66 -55 -74 0
-31 40 -11 103 50 40 40 90 76 133 97 67 33 73 34 189 34 116 0 122 -1 189
-34 46 -22 90 -55 133 -98 73 -74 102 -80 48 -10 -118 154 -319 228 -494 181z"/>
</g>
</svg>
